# xmcd
#
# Track frame offsets:
#	150
#	12135
#	29060
#	43457
#	56097
#	70672
#	87745
#	104402
#	118075
#	139865
#	157825
#	174400
#	189340
#	205715
#
# Disc length: 2794 seconds
#
# Revision: 0
# Processed by: cddbd v1.5.1PL0 Copyright (c) Steve Scherf et al.
# Submitted via: audiograbber 1.83.01
#
DISCID=c50ae80e
DTITLE=Vicky Pratt Keating - Blue Apples
DYEAR=1995
DGENRE=Country
TTITLE0=The First Exchange
TTITLE1=N. Y. 10/11/91
TTITLE2=Buffalo
TTITLE3=Rough Draft
TTITLE4=Those Voices
TTITLE5=Into the Amazon
TTITLE6=Boy with a Kite
TTITLE7=In Your Shoes
TTITLE8=Shoot for the Moon
TTITLE9=Ten Step Stairs
TTITLE10=Sylvie
TTITLE11=Ice
TTITLE12=Oh Peter
TTITLE13=Buffalo Reprise
EXTD=
EXTT0=
EXTT1=
EXTT2=
EXTT3=
EXTT4=
EXTT5=
EXTT6=
EXTT7=
EXTT8=
EXTT9=
EXTT10=
EXTT11=
EXTT12=
EXTT13=
PLAYORDER=
